<svg xmlns="http://www.w3.org/2000/svg" viewBox="0 0 960 320" role="img" aria-label="Shiz-and-giggles logo">
  <defs>
    <linearGradient id="glow" x1="0%" y1="0%" x2="100%" y2="0%">
      <stop offset="0%" stop-color="#ff7d4d"/>
      <stop offset="50%" stop-color="#ffdc60"/>
      <stop offset="100%" stop-color="#56d2ff"/>
    </linearGradient>
    <filter id="shadow" x="-20%" y="-20%" width="140%" height="140%">
      <feDropShadow dx="0" dy="10" stdDeviation="20" flood-color="#0e0e14" flood-opacity="0.6"/>
    </filter>
  </defs>
  <rect width="960" height="320" rx="28" fill="#0e0e14"/>
  <g filter="url(#shadow)">
    <path d="M210 240c-70 0-110-33-110-78 0-42 33-62 71-74l66-20c19-6 28-13 28-26 0-17-16-27-40-27-28 0-51 12-66 36l-59-34c25-46 74-75 134-75 78 0 126 39 126 100 0 46-30 73-86 90l-53 16c-20 6-30 13-30 26 0 15 15 25 38 25 26 0 48-11 62-32l58 35c-27 43-74 68-139 68Z" fill="url(#glow)"/>
    <path d="M540 70v60h122v70H540v70h-90V0h222v70H540Z" fill="#ffffff"/>
    <path d="M735 0h90v90l87-90h104l-104 103 109 157H820l-49-78-31 31v47h-90V0Z" fill="#ffffff"/>
  </g>
  <text x="480" y="286" text-anchor="middle" fill="#9da7be" font-family="Inter, 'Segoe UI', system-ui, -apple-system, sans-serif" font-size="32" letter-spacing="4">FAST-PACED ARENA SHOOTER</text>
</svg>
